<?xml version="1.0" encoding="UTF-8" standalone="no"?>
<!DOCTYPE svg PUBLIC "-//W3C//DTD SVG 1.1//EN" "http://www.w3.org/Graphics/SVG/1.1/DTD/svg11.dtd">
<svg xmlns="http://www.w3.org/2000/svg" version="1.1" viewBox="0.00 0.00 1200.00 1200.00">
<path fill="#000000" d="
  M 222.49 484.22
  A 0.64 0.64 0.0 0 0 221.41 484.50
  L 162.57 708.48
  A 1.07 1.06 -82.6 0 1 161.54 709.28
  L 52.94 709.28
  A 0.98 0.98 0.0 0 1 51.98 708.13
  C 52.38 705.88 52.80 703.58 53.45 701.40
  Q 101.90 541.10 150.26 381.18
  Q 150.88 379.15 151.91 377.21
  Q 162.19 357.80 178.70 347.22
  C 185.61 342.80 191.68 340.93 199.93 340.53
  Q 212.88 339.91 226.54 341.20
  C 230.18 341.55 233.48 342.13 236.71 343.98
  C 247.56 350.18 256.52 358.88 264.08 369.05
  Q 266.20 371.90 269.29 377.42
  Q 329.62 485.12 390.02 592.89
  A 0.82 0.82 0.0 0 0 391.39 592.99
  C 392.12 592.06 392.55 590.88 393.13 589.82
  Q 450.80 484.52 508.60 379.28
  Q 518.07 362.04 531.79 351.09
  C 536.11 347.65 540.84 344.89 546.46 343.68
  Q 560.24 340.72 572.75 340.77
  Q 717.41 341.38 981.92 342.78
  Q 993.14 342.84 1001.30 343.97
  C 1031.50 348.12 1062.45 357.95 1087.09 375.80
  C 1113.33 394.79 1129.54 428.14 1134.43 459.51
  C 1135.66 467.45 1135.63 476.37 1134.56 484.36
  C 1130.17 517.07 1116.11 553.87 1088.63 573.86
  Q 1080.13 580.05 1070.35 584.89
  C 1043.41 598.25 1013.06 605.36 982.91 608.57
  Q 973.71 609.55 962.78 609.54
  Q 864.71 609.45 767.22 609.50
  A 0.34 0.33 -0.0 0 0 766.88 609.83
  Q 765.91 659.65 764.93 707.85
  Q 764.89 709.69 764.36 711.40
  Q 764.03 712.45 763.80 711.37
  Q 762.36 704.61 759.94 696.77
  Q 732.59 608.06 705.61 519.91
  A 0.46 0.46 0.0 0 1 706.05 519.32
  Q 836.74 519.38 972.20 519.35
  Q 980.26 519.35 985.74 518.04
  C 995.08 515.82 1004.46 511.82 1011.30 504.95
  C 1018.77 497.43 1023.43 483.86 1023.95 473.79
  C 1024.45 463.97 1016.92 452.65 1009.99 446.41
  C 999.06 436.58 982.23 434.72 967.45 434.74
  Q 778.87 434.90 576.51 434.79
  A 2.50 2.50 0.0 0 0 574.29 436.14
  Q 511.87 557.10 449.54 678.37
  Q 443.87 689.41 439.71 694.55
  Q 432.18 703.85 423.11 710.04
  Q 414.09 716.19 401.55 716.81
  Q 390.00 717.38 375.82 716.58
  C 368.27 716.16 359.45 715.15 352.85 711.39
  C 340.54 704.40 331.57 692.95 325.18 680.20
  Q 324.07 677.99 322.89 675.73
  Q 273.72 582.00 224.72 488.18
  C 224.09 486.96 223.40 485.15 222.49 484.22
  Z"
/>
<path fill="#000000" d="
  M 565.60 526.84
  C 575.71 507.50 586.17 487.40 596.22 467.41
  A 2.54 2.53 -76.8 0 1 598.49 466.00
  L 652.92 466.00
  A 1.27 1.26 -7.9 0 1 654.14 466.92
  L 724.35 712.35
  A 0.70 0.69 -7.9 0 1 723.68 713.23
  L 614.41 713.20
  A 1.94 1.93 -8.0 0 1 612.55 711.80
  Q 589.32 630.48 565.87 549.02
  C 564.17 543.14 562.48 532.81 565.60 526.84
  Z"
/>
<path fill="#000000" d="
  M 196.75 818.55
  A 0.36 0.36 0.0 0 0 196.35 818.92
  Q 196.54 834.00 196.53 848.01
  C 196.52 850.38 194.24 851.20 192.37 851.79
  C 187.51 853.32 174.96 854.31 174.98 846.72
  Q 175.08 803.75 175.34 766.11
  C 175.38 760.20 175.17 753.42 176.95 747.73
  Q 178.77 741.90 184.41 741.05
  C 198.26 738.96 212.67 739.86 225.93 744.35
  Q 235.78 747.69 241.01 752.69
  C 253.03 764.18 253.32 783.04 245.72 797.56
  C 241.37 805.88 234.57 811.87 225.35 815.05
  Q 211.41 819.85 196.75 818.55
  Z
  M 196.67 760.33
  L 196.93 796.33
  A 1.07 1.07 0.0 0 0 198.00 797.40
  L 205.78 797.34
  A 23.71 18.36 -0.4 0 0 229.36 778.82
  L 229.35 777.40
  A 23.71 18.36 -0.4 0 0 205.52 759.20
  L 197.74 759.26
  A 1.07 1.07 0.0 0 0 196.67 760.33
  Z"
/>
<path fill="#000000" d="
  M 325.75 819.24
  Q 325.92 832.70 326.09 847.37
  Q 326.12 849.90 323.99 850.90
  C 318.68 853.37 311.00 854.14 305.99 850.48
  Q 304.48 849.38 304.49 847.36
  Q 304.58 808.24 304.81 762.24
  Q 304.85 754.03 306.39 748.01
  Q 307.95 741.90 313.90 741.04
  Q 335.59 737.91 354.49 744.06
  C 359.99 745.85 366.28 748.57 370.41 752.58
  C 385.78 767.50 382.02 792.76 368.32 806.89
  Q 363.25 812.11 355.19 814.93
  Q 340.97 819.90 326.50 818.55
  Q 325.75 818.48 325.75 819.24
  Z
  M 326.15 760.24
  L 326.34 796.46
  A 0.97 0.97 0.0 0 0 327.31 797.42
  L 335.12 797.38
  A 23.90 18.42 -0.3 0 0 358.92 778.83
  L 358.92 777.51
  A 23.90 18.42 -0.3 0 0 334.92 759.22
  L 327.11 759.26
  A 0.97 0.97 0.0 0 0 326.15 760.24
  Z"
/>
<path fill="#000000" d="
  M 1101.84 764.98
  C 1100.21 769.09 1104.08 774.18 1106.92 776.93
  C 1115.02 784.79 1124.06 791.29 1132.43 799.04
  Q 1138.22 804.40 1140.95 809.28
  C 1150.05 825.57 1142.79 847.53 1123.16 851.09
  C 1106.43 854.12 1089.89 844.73 1080.39 831.26
  C 1079.61 830.17 1079.56 828.63 1080.05 827.42
  C 1081.60 823.67 1087.50 816.39 1092.61 817.69
  Q 1093.06 817.80 1093.34 818.17
  Q 1100.00 827.06 1108.71 830.59
  C 1114.13 832.79 1121.98 833.40 1123.08 825.74
  Q 1123.98 819.43 1119.11 813.77
  Q 1115.03 809.04 1110.14 805.34
  C 1102.29 799.39 1094.25 793.34 1087.85 786.38
  C 1079.05 776.81 1078.00 763.49 1085.36 752.70
  C 1095.35 738.04 1115.75 737.47 1129.59 746.85
  Q 1137.33 752.10 1144.14 760.00
  C 1145.93 762.07 1145.80 764.77 1144.13 766.87
  Q 1140.08 771.98 1132.66 773.86
  Q 1130.09 774.51 1128.47 772.52
  C 1123.82 766.83 1115.73 760.96 1108.13 761.17
  Q 1103.30 761.30 1101.84 764.98
  Z"
/>
<path fill="#000000" d="
  M 625.17 809.85
  Q 625.36 809.25 625.36 808.69
  Q 625.41 776.96 625.54 745.37
  Q 625.55 743.21 627.64 742.43
  C 632.52 740.61 639.52 740.08 644.69 742.17
  C 646.00 742.69 646.07 744.09 646.08 745.31
  Q 646.52 797.00 646.80 847.00
  A 1.73 1.71 -28.1 0 1 646.50 847.97
  C 644.04 851.55 637.97 852.39 633.94 852.35
  Q 628.58 852.30 625.69 848.21
  Q 602.50 815.36 578.95 781.25
  Q 578.05 779.96 578.06 781.53
  Q 578.26 814.58 578.34 846.83
  Q 578.35 849.11 576.14 849.99
  Q 569.07 852.83 561.70 851.09
  C 558.68 850.38 556.80 848.58 556.81 845.52
  Q 556.98 796.91 557.27 745.49
  A 2.36 2.35 -11.9 0 1 558.66 743.36
  C 563.02 741.38 574.11 738.67 577.65 743.63
  Q 600.84 776.16 624.95 809.89
  A 0.13 0.12 -54.0 0 0 625.17 809.85
  Z"
/>
<path fill="#000000" d="
  M 1025.29 740.79
  C 1088.47 740.03 1086.85 856.73 1022.88 853.02
  Q 999.45 851.67 986.56 832.60
  C 972.62 811.99 973.33 779.36 988.25 759.31
  Q 1001.84 741.07 1025.29 740.79
  Z
  M 1015.67 830.40
  C 1057.93 844.33 1063.74 760.33 1022.72 762.59
  C 1010.37 763.27 1001.72 772.96 998.44 784.17
  C 994.86 796.40 996.09 811.36 1003.78 821.51
  Q 1008.81 828.14 1015.67 830.40
  Z"
/>
<path fill="#000000" d="
  M 676.78 829.80
  Q 696.57 829.83 715.00 829.75
  C 716.57 829.74 717.56 830.35 718.23 831.70
  C 720.60 836.45 720.91 841.71 719.35 846.84
  Q 718.18 850.69 714.48 850.66
  Q 693.85 850.50 671.77 850.69
  Q 667.18 850.73 662.53 849.92
  C 656.06 848.79 654.87 843.91 654.85 838.40
  Q 654.72 797.28 654.53 755.03
  C 654.50 749.95 655.09 743.86 660.74 742.26
  C 664.25 741.26 668.35 741.02 672.10 741.03
  Q 693.01 741.04 713.67 740.99
  C 722.35 740.98 720.38 755.01 718.44 759.72
  C 717.87 761.12 716.82 762.24 715.22 762.24
  Q 695.30 762.26 676.48 762.23
  A 0.36 0.36 0.0 0 0 676.12 762.59
  L 676.11 785.76
  A 0.92 0.92 0.0 0 0 677.03 786.68
  Q 693.65 786.66 710.73 786.52
  Q 713.18 786.50 714.15 788.70
  Q 717.84 797.10 714.76 805.08
  C 714.02 807.00 712.32 808.11 710.29 808.10
  Q 693.55 807.96 676.56 807.75
  A 0.40 0.39 -0.0 0 0 676.16 808.14
  L 676.21 829.24
  A 0.57 0.56 -0.0 0 0 676.78 829.80
  Z"
/>
<path fill="#000000" d="
  M 68.61 789.70
  Q 68.14 788.46 67.98 789.78
  Q 64.59 818.55 61.18 847.72
  Q 61.08 848.54 60.31 849.13
  C 56.68 851.92 49.12 851.08 44.48 849.58
  C 40.88 848.41 39.79 846.36 40.20 842.52
  Q 40.59 838.81 41.05 835.27
  Q 46.82 790.25 52.54 746.25
  Q 52.68 745.17 53.00 744.14
  Q 53.14 743.65 53.56 743.38
  C 57.40 740.87 71.42 740.29 73.15 744.59
  Q 86.34 777.47 99.60 810.00
  Q 99.92 810.78 100.24 810.00
  Q 113.37 777.57 126.58 744.94
  Q 127.34 743.05 129.41 742.48
  Q 137.70 740.20 145.11 742.66
  Q 146.84 743.24 147.07 745.01
  Q 153.06 790.87 159.22 838.25
  Q 159.43 839.85 159.25 845.73
  C 159.20 847.33 158.23 848.30 156.86 848.92
  Q 149.14 852.38 140.82 849.87
  C 139.66 849.52 138.84 848.61 138.69 847.40
  Q 135.08 817.90 131.94 789.84
  Q 131.77 788.33 131.22 789.74
  Q 120.26 818.19 109.71 844.44
  Q 108.90 846.45 106.73 847.09
  C 102.71 848.30 92.11 849.41 90.10 844.40
  Q 78.94 816.63 68.61 789.70
  Z"
/>
<path fill="#000000" d="
  M 520.49 827.29
  A 0.80 0.79 -9.9 0 0 519.74 826.77
  L 485.25 826.52
  A 1.11 1.10 -79.5 0 0 484.20 827.25
  Q 480.03 838.85 476.33 848.76
  C 475.76 850.28 474.47 851.14 472.86 851.23
  C 467.76 851.52 460.49 850.07 457.44 845.54
  Q 456.18 843.66 456.96 841.48
  Q 474.39 792.89 491.29 746.02
  Q 492.16 743.60 494.39 742.92
  C 498.52 741.66 510.16 740.63 512.37 745.96
  Q 514.76 751.72 516.94 757.45
  Q 532.91 799.44 547.96 841.97
  Q 548.57 843.70 547.75 845.38
  C 545.27 850.42 537.06 851.90 531.96 851.54
  Q 529.34 851.35 528.41 848.76
  Q 524.53 837.98 520.49 827.29
  Z
  M 492.27 805.46
  A 0.32 0.32 0.0 0 0 492.57 805.89
  L 512.26 805.93
  A 0.32 0.32 0.0 0 0 512.56 805.50
  L 502.76 778.59
  A 0.32 0.32 0.0 0 0 502.16 778.59
  L 492.27 805.46
  Z"
/>
<path fill="#000000" d="
  M 854.49 827.26
  A 0.75 0.74 79.9 0 0 853.79 826.77
  L 819.30 826.51
  A 1.16 1.15 -79.7 0 0 818.20 827.28
  Q 814.38 837.91 810.59 848.18
  C 810.04 849.69 809.13 851.04 807.36 851.18
  Q 800.70 851.73 795.19 848.86
  C 792.17 847.28 789.83 844.63 791.15 840.96
  Q 808.27 793.29 825.44 745.70
  C 827.35 740.41 839.13 741.80 843.26 743.09
  Q 845.34 743.75 846.15 745.60
  Q 847.57 748.86 848.73 751.84
  Q 865.51 795.26 881.77 841.41
  Q 883.14 845.29 879.75 847.87
  Q 874.20 852.08 866.04 851.53
  Q 863.35 851.35 862.43 848.75
  Q 858.61 838.04 854.49 827.26
  Z
  M 826.32 805.42
  A 0.35 0.35 0.0 0 0 826.64 805.89
  L 846.24 805.93
  A 0.35 0.35 0.0 0 0 846.57 805.46
  L 836.82 778.67
  A 0.35 0.35 0.0 0 0 836.16 778.67
  L 826.32 805.42
  Z"
/>
<path fill="#000000" d="
  M 744.97 828.60
  C 758.01 834.80 763.89 825.59 765.05 814.43
  Q 766.37 801.64 766.23 788.81
  Q 766.05 771.46 764.98 746.90
  C 764.88 744.71 766.76 743.54 768.63 743.00
  C 773.84 741.51 780.46 741.26 784.91 744.57
  Q 786.37 745.66 786.46 747.43
  Q 787.80 775.21 787.22 802.72
  Q 787.10 808.08 786.42 813.87
  C 784.44 830.59 779.61 847.75 759.69 850.34
  C 751.47 851.41 739.30 849.85 732.99 843.79
  C 728.91 839.88 730.72 833.44 733.62 829.29
  C 735.59 826.48 739.12 824.69 742.14 826.91
  Q 743.48 827.89 744.97 828.60
  Z"
/>
<path fill="#000000" d="
  M 410.48 829.83
  L 444.07 829.17
  A 2.67 2.66 72.7 0 1 446.35 830.37
  C 448.85 834.18 449.13 839.95 448.54 844.30
  C 448.15 847.12 446.50 850.73 443.13 850.70
  Q 422.17 850.53 404.79 850.70
  Q 397.73 850.77 393.16 849.00
  C 388.37 847.15 388.28 841.15 388.27 836.87
  Q 388.16 788.06 388.50 747.06
  Q 388.52 744.81 390.61 744.08
  C 394.44 742.73 405.16 741.08 408.58 744.69
  Q 408.94 745.07 408.99 745.60
  Q 409.20 747.95 409.22 750.50
  Q 409.46 790.04 409.59 828.97
  A 0.87 0.87 0.0 0 0 410.48 829.83
  Z"
/>
<path fill="#000000" d="
  M 956.84 829.86
  C 944.12 846.72 922.23 852.82 901.65 849.87
  C 896.11 849.08 891.79 845.86 891.81 839.82
  Q 891.92 793.06 892.27 750.16
  Q 892.31 745.46 897.68 744.04
  Q 903.19 742.59 908.28 742.77
  C 933.36 743.67 958.28 754.53 965.36 780.55
  C 969.87 797.10 967.43 815.82 956.84 829.86
  Z
  M 912.33 764.10
  L 912.69 831.35
  A 0.23 0.23 0.0 0 0 912.92 831.58
  L 913.90 831.58
  A 34.91 32.42 -0.3 0 0 948.64 798.98
  L 948.62 796.10
  A 34.91 32.42 -0.3 0 0 913.54 763.86
  L 912.56 763.86
  A 0.23 0.23 0.0 0 0 912.33 764.10
  Z"
/>
</svg>
